<svg width="300" height="200" viewBox="0 0 300 200" xmlns="http://www.w3.org/2000/svg">
  <defs>
    <linearGradient id="grad2" x1="0%" y1="0%" x2="100%" y2="100%">
      <stop offset="0%" style="stop-color:#0d6efd;stop-opacity:1" />
      <stop offset="100%" style="stop-color:#6f42c1;stop-opacity:1" />
    </linearGradient>
  </defs>
  
  <!-- Background -->
  <rect width="300" height="200" fill="#f8f9fa"/>
  
  <!-- Team Icons -->
  <circle cx="80" cy="60" r="25" fill="url(#grad2)" opacity="0.8"/>
  <path d="M70 60 L80 50 L90 60 L80 70 Z" fill="white"/>
  
  <circle cx="150" cy="80" r="25" fill="url(#grad2)" opacity="0.6"/>
  <path d="M140 80 L150 70 L160 80 L150 90 Z" fill="white"/>
  
  <circle cx="220" cy="60" r="25" fill="url(#grad2)" opacity="0.7"/>
  <path d="M210 60 L220 50 L230 60 L220 70 Z" fill="white"/>
  
  <!-- Technology Icons -->
  <rect x="50" y="120" width="40" height="30" rx="5" fill="url(#grad2)" opacity="0.5"/>
  <text x="70" y="140" text-anchor="middle" font-family="Arial, sans-serif" font-size="12" fill="white">AI</text>
  
  <rect x="120" y="120" width="40" height="30" rx="5" fill="url(#grad2)" opacity="0.5"/>
  <text x="140" y="140" text-anchor="middle" font-family="Arial, sans-serif" font-size="12" fill="white">ML</text>
  
  <rect x="190" y="120" width="40" height="30" rx="5" fill="url(#grad2)" opacity="0.5"/>
  <text x="210" y="140" text-anchor="middle" font-family="Arial, sans-serif" font-size="12" fill="white">Data</text>
  
  <!-- Connection Lines -->
  <path d="M80 85 L120 120" stroke="url(#grad2)" stroke-width="2" opacity="0.4"/>
  <path d="M150 105 L150 120" stroke="url(#grad2)" stroke-width="2" opacity="0.4"/>
  <path d="M220 85 L190 120" stroke="url(#grad2)" stroke-width="2" opacity="0.4"/>
</svg>
