<svg width="400" height="300" viewBox="0 0 400 300" xmlns="http://www.w3.org/2000/svg">
  <defs>
    <linearGradient id="grad1" x1="0%" y1="0%" x2="100%" y2="100%">
      <stop offset="0%" style="stop-color:#667eea;stop-opacity:1" />
      <stop offset="100%" style="stop-color:#764ba2;stop-opacity:1" />
    </linearGradient>
  </defs>
  
  <!-- Background -->
  <rect width="400" height="300" fill="#f8f9fa"/>
  
  <!-- Medical Icons -->
  <circle cx="100" cy="80" r="40" fill="url(#grad1)" opacity="0.8"/>
  <path d="M85 80 L95 70 L105 80 L95 90 Z" fill="white"/>
  
  <circle cx="300" cy="120" r="35" fill="url(#grad1)" opacity="0.6"/>
  <path d="M290 120 L300 110 L310 120 L300 130 Z" fill="white"/>
  
  <circle cx="200" cy="200" r="30" fill="url(#grad1)" opacity="0.7"/>
  <path d="M190 200 L200 190 L210 200 L200 210 Z" fill="white"/>
  
  <!-- Heart Icon -->
  <path d="M200 100 C200 80, 180 70, 160 90 C140 70, 120 80, 120 100 C120 120, 160 150, 200 150 C240 150, 280 120, 280 100 C280 80, 260 70, 240 90 C220 70, 200 80, 200 100 Z" fill="#dc3545" opacity="0.8"/>
  
  <!-- Chart Lines -->
  <path d="M50 250 L100 200 L150 220 L200 180 L250 200 L300 160 L350 180" stroke="url(#grad1)" stroke-width="3" fill="none" opacity="0.6"/>
  
  <!-- Data Points -->
  <circle cx="100" cy="200" r="4" fill="url(#grad1)"/>
  <circle cx="150" cy="220" r="4" fill="url(#grad1)"/>
  <circle cx="200" cy="180" r="4" fill="url(#grad1)"/>
  <circle cx="250" cy="200" r="4" fill="url(#grad1)"/>
  <circle cx="300" cy="160" r="4" fill="url(#grad1)"/>
  
  <!-- Text -->
  <text x="200" y="280" text-anchor="middle" font-family="Arial, sans-serif" font-size="16" fill="#6c757d">AI-Powered Health Predictions</text>
</svg>
